<?xml version="1.0" encoding="UTF-8"?>
<svg id="_图层_1" data-name="图层 1" xmlns="http://www.w3.org/2000/svg" viewBox="0 0 30 30">
  <defs>
    <style>
      .cls-1 {
        fill: #444;
      }
    </style>
  </defs>
  <path class="cls-1" d="M14.49,5.43v3.19c0,.38.26.64.64.64s.64-.26.64-.64v-3.19c0-.38-.26-.64-.64-.64s-.64.26-.64.64Z"/>
  <path class="cls-1" d="M11.3,7.34v2.55c0,.38.26.64.64.64s.64-.26.64-.64v-2.55c0-.38-.26-.64-.64-.64s-.64.26-.64.64Z"/>
  <path class="cls-1" d="M17.68,7.34v2.55c0,.38.26.64.64.64s.64-.26.64-.64v-2.55c0-.38-.26-.64-.64-.64s-.64.26-.64.64Z"/>
  <path class="cls-1" d="M5.56,13.09h.64v.64c0,3.64,2.17,6.76,5.3,8.17l-1.4,2.36c-.19.32-.06.7.19.89.13.06.19.06.32.06.19,0,.45-.13.57-.32l1.53-2.55c.77.19,1.53.32,2.36.32s1.6-.13,2.36-.32l1.53,2.55c.13.19.32.32.57.32.13,0,.26,0,.32-.06.32-.19.38-.57.19-.89l-1.4-2.36c3.13-1.4,5.3-4.53,5.3-8.17v-.64h.64c.38,0,.64-.26.64-.64s-.26-.64-.64-.64H5.43c-.38,0-.64.26-.64.64s.38.64.77.64ZM22.78,13.09v.64c0,4.21-3.45,7.66-7.66,7.66s-7.66-3.45-7.66-7.66v-.64h15.31Z"/>
  <path class="cls-1" d="M13.85,15.64h2.55c.38,0,.64-.26.64-.64s-.26-.64-.64-.64h-2.55c-.38,0-.64.26-.64.64s.26.64.64.64Z"/>
</svg>