<?xml version="1.0" encoding="UTF-8"?>
<svg id="_图层_1" data-name="图层 1" xmlns="http://www.w3.org/2000/svg" viewBox="0 0 30 30">
  <defs>
    <style>
      .cls-1 {
        fill: #444;
      }
    </style>
  </defs>
  <path class="cls-1" d="M24.57,5.24c-1.66,0-2.87.64-3.64,1.85-.77-.45-1.66-.64-2.55-.64-1.28.06-2.49.7-3.25,1.72l-1.53,1.91-.06.06c-.06.06-.13.13-.13.26l-6.44,8.17c-.06,0-.06.06-.13.06-.06.06-.13.19-.13.26l-1.34,1.66c-.83,1.08-.77,2.55.19,3.45.51.51,1.15.77,1.85.77.57,0,1.08-.19,1.6-.51l12.44-9.76c1.02-.77,1.6-1.98,1.72-3.25.06-1.28-.38-2.49-1.28-3.38.51-.89,1.4-1.34,2.68-1.34.38,0,.64-.26.64-.64s-.26-.64-.64-.64ZM21.89,11.17c-.06.89-.51,1.72-1.21,2.3l-5.81,4.53-1.66-1.66c-.26-.26-.64-.26-.89,0s-.26.64,0,.89l1.6,1.6-5.61,4.4c-.57.38-1.34.38-1.79-.13-.51-.51-.51-1.21-.06-1.79l1.02-1.28.83.83c.13.13.32.19.45.19s.32-.06.45-.19c.26-.26.26-.64,0-.89l-.89-.89,5.87-7.47,1.98,1.98c.13.13.32.19.45.19s.32-.06.45-.19c.26-.26.26-.64,0-.89l-2.04-2.04,1.28-1.66c.57-.7,1.4-1.15,2.3-1.21h.19c.89,0,1.66.32,2.3.96.51.64.89,1.47.83,2.42Z"/>
</svg>