<?xml version="1.0" encoding="UTF-8"?>
<svg id="_图层_1" data-name="图层 1" xmlns="http://www.w3.org/2000/svg" viewBox="0 0 30 30">
  <defs>
    <style>
      .cls-1 {
        fill: #444;
      }
    </style>
  </defs>
  <path class="cls-1" d="M19.47,25.21c1.08,0,1.91-.83,1.91-1.91v-9.57c1.08,0,1.91-.83,1.91-1.91v-6.38c0-.38-.26-.64-.64-.64s-.64.26-.64.64v3.83h-1.91v-3.83c0-.38-.26-.64-.64-.64s-.64.26-.64.64v3.83h-1.91v-3.83c0-.38-.26-.64-.64-.64s-.64.26-.64.64v6.38c0,1.08.83,1.91,1.91,1.91v9.57c0,1.08.83,1.91,1.91,1.91ZM16.91,11.81v-1.28h5.1v1.28c0,.38-.26.64-.64.64h-3.83c-.38,0-.64-.26-.64-.64ZM20.1,13.72v9.57c0,.38-.26.64-.64.64s-.64-.26-.64-.64v-9.57h1.28Z"/>
  <path class="cls-1" d="M6.71,9.9c0,1.47.77,2.68,1.91,3.32v10.08c0,1.08.83,1.91,1.91,1.91s1.91-.83,1.91-1.91v-10.08c1.15-.64,1.91-1.91,1.91-3.32v-1.28c0-2.17-1.66-3.83-3.83-3.83s-3.83,1.66-3.83,3.83v1.28ZM11.17,23.29c0,.38-.26.64-.64.64s-.64-.26-.64-.64v-9.63c.19.06.45.06.64.06s.45,0,.64-.06v9.63ZM7.98,8.62c0-1.4,1.15-2.55,2.55-2.55s2.55,1.15,2.55,2.55v1.28c0,1.4-1.15,2.55-2.55,2.55s-2.55-1.15-2.55-2.55v-1.28Z"/>
</svg>