<?xml version="1.0" encoding="UTF-8"?>
<svg id="_图层_1" data-name="图层 1" xmlns="http://www.w3.org/2000/svg" viewBox="0 0 30 30">
  <defs>
    <style>
      .cls-1 {
        fill: #444;
      }
    </style>
  </defs>
  <path class="cls-1" d="M23.29,10.53c.38,0,.64-.26.64-.64v-2.55c0-.38-.26-.64-.64-.64h-3.45l-.77-1.53c-.13-.19-.32-.38-.57-.38h-7.02c-.26,0-.45.13-.57.38l-.77,1.53h-3.45c-.38,0-.64.26-.64.64v2.55c0,.38.26.64.64.64h1.34l.19,2.55h-.26c-.19,0-.32.06-.45.19s-.19.32-.19.51l.64,7.66c0,.32.32.57.64.57h.45l.19,2.62c0,.32.32.57.64.57h10.21c.32,0,.64-.26.64-.57l.19-2.62h.45c.32,0,.64-.26.64-.57l.64-7.66c0-.19-.06-.38-.19-.51s-.32-.19-.45-.19h-.26l.19-2.55h1.34ZM7.34,7.98h3.19c.26,0,.45-.13.57-.38l.77-1.53h6.25l.77,1.53c.13.19.32.38.57.38h3.19v1.28H7.34v-1.28h0ZM19.53,23.93h-9.06l-.13-1.91h9.32l-.13,1.91ZM20.81,20.74h-11.61l-.51-6.38h12.63l-.51,6.38ZM20.49,13.09h-10.97l-.19-2.55h11.36l-.19,2.55Z"/>
  <path class="cls-1" d="M15,15.64c-1.08,0-1.91.83-1.91,1.91s.83,1.91,1.91,1.91,1.91-.83,1.91-1.91-.83-1.91-1.91-1.91ZM15,18.19c-.38,0-.64-.26-.64-.64s.26-.64.64-.64.64.26.64.64-.26.64-.64.64Z"/>
</svg>