<?xml version="1.0" encoding="UTF-8"?>
<svg id="_图层_1" data-name="图层 1" xmlns="http://www.w3.org/2000/svg" viewBox="0 0 30 30">
  <defs>
    <style>
      .cls-1 {
        fill: #444;
      }
    </style>
  </defs>
  <path class="cls-1" d="M13.4,8.62c.38,0,.64-.26.64-.64v-2.55c0-.38-.26-.64-.64-.64s-.64.26-.64.64v2.55c0,.38.26.64.64.64Z"/>
  <path class="cls-1" d="M10.21,9.9c.38,0,.64-.26.64-.64v-2.55c0-.38-.26-.64-.64-.64s-.64.26-.64.64v2.55c0,.38.26.64.64.64Z"/>
  <path class="cls-1" d="M16.6,9.9c.38,0,.64-.26.64-.64v-2.55c0-.38-.26-.64-.64-.64s-.64.26-.64.64v2.55c0,.38.26.64.64.64Z"/>
  <path class="cls-1" d="M24.25,11.81H5.75c-.38,0-.64.26-.64.64v4.47c0,4.59,3.7,8.29,8.29,8.29,4.34,0,7.91-3.38,8.23-7.66h1.34c1.08,0,1.91-.83,1.91-1.91v-3.19c0-.38-.26-.64-.64-.64ZM13.4,23.93c-3.89,0-7.02-3.13-7.02-7.02v-3.83h8.93v2.55h-1.28c-.38,0-.64.26-.64.64v3.83c0,.38.26.64.64.64h3.83c.38,0,.64-.26.64-.64v-3.83c0-.38-.26-.64-.64-.64h-1.28v-2.55h3.83v3.83c0,3.89-3.13,7.02-7.02,7.02ZM17.23,16.91v2.55h-2.55v-2.55h2.55ZM23.61,15.64c0,.38-.26.64-.64.64h-1.28v-3.19h1.91v2.55Z"/>
</svg>