<?xml version="1.0" encoding="UTF-8"?>
<svg id="_图层_1" data-name="图层 1" xmlns="http://www.w3.org/2000/svg" viewBox="0 0 30 30">
  <defs>
    <style>
      .cls-1 {
        fill: #444;
      }
    </style>
  </defs>
  <path class="cls-1" d="M9.26,17.55v7.02c0,.38.26.64.64.64h10.21c.38,0,.64-.26.64-.64v-7.02c0-1.91-1.34-3.51-3.19-3.76v-5.17c.38,0,.64-.26.64-.64v-2.55c0-.38-.26-.64-.64-.64h-5.1c-.38,0-.64.26-.64.64v2.55c0,.38.26.64.64.64v5.17c-1.85.26-3.19,1.85-3.19,3.76ZM10.53,23.93v-4.47h8.93v4.47h-8.93ZM13.09,6.07h3.83v1.28h-3.83v-1.28ZM13.09,15c.38,0,.64-.26.64-.64v-5.74h2.55v5.74c0,.38.26.64.64.64,1.4,0,2.55,1.15,2.55,2.55v.64h-8.93v-.64c0-1.4,1.15-2.55,2.55-2.55Z"/>
</svg>