<?xml version="1.0" encoding="UTF-8"?>
<svg id="_图层_1" data-name="图层 1" xmlns="http://www.w3.org/2000/svg" viewBox="0 0 30 30">
  <defs>
    <style>
      .cls-1 {
        fill: #444;
      }
    </style>
  </defs>
  <path class="cls-1" d="M13.72,13.72h.64v1.91h-.64c-.38,0-.64.26-.64.64v3.19c0,1.08.83,1.91,1.91,1.91s1.91-.83,1.91-1.91v-3.19c0-.38-.26-.64-.64-.64h-.64v-1.91h.64c.77,0,1.28-.51,1.28-1.28v-2.55c0-.38-.26-.64-.64-.64s-.64.26-.64.64v2.55h-.64v-2.55c0-.38-.26-.64-.64-.64s-.64.26-.64.64v2.55h-.64v-2.55c0-.38-.26-.64-.64-.64s-.64.26-.64.64v2.55c0,.77.51,1.28,1.28,1.28ZM15.64,19.47c0,.38-.26.64-.64.64s-.64-.26-.64-.64v-2.55h1.28v2.55Z"/>
  <path class="cls-1" d="M6.07,25.21h14.61c1.08,0,1.98-.83,1.98-1.91v-7.66h1.28c.38,0,.64-.26.64-.64v-6.38c0-.38-.26-.64-.64-.64h-1.28v-1.28c0-1.08-.89-1.91-1.98-1.91H6.07c-.38,0-.64.26-.64.64v19.14c0,.38.26.64.64.64ZM23.29,14.36h-.64v-1.91h.64v1.91ZM23.29,9.26v1.91h-.64v-1.91h.64ZM21.38,6.71v16.59c0,.38-.32.64-.7.64h-11.42V6.07h11.42c.38,0,.7.26.7.64ZM6.71,6.07h1.28v17.87h-1.28V6.07Z"/>
</svg>