<?xml version="1.0" encoding="UTF-8"?>
<svg id="_图层_1" data-name="图层 1" xmlns="http://www.w3.org/2000/svg" viewBox="0 0 30 30">
  <defs>
    <style>
      .cls-1 {
        fill: #444;
      }
    </style>
  </defs>
  <path class="cls-1" d="M6.16,15.8c.38.57.89,1.08,1.53,1.4-1.28.96-2.04,1.79-2.11,1.85-.19.26-.19.64,0,.83.06.06,1.02,1.08,2.49,2.17-.7.89-.77,2.3-.77,2.55,0,.38.26.64.64.64h0c.38,0,.64-.26.64-.64,0-.51.13-1.47.57-1.79,1.6.96,3.64,1.79,5.81,1.79s4.21-.83,5.81-1.79c.45.38.57,1.34.57,1.79,0,.38.26.64.64.64s.64-.26.64-.64c0-.19,0-1.66-.77-2.55,1.47-1.02,2.42-2.04,2.49-2.11.26-.26.26-.64,0-.89-.06-.06-.83-.96-2.11-1.85.64-.32,1.15-.77,1.53-1.4.64-1.02.77-2.36.32-3.7,1.47-1.79,1.34-4.4-.26-6.06-.89-.89-2.11-1.34-3.45-1.28-.26,0-.45.13-.51.38s-.06.45.06.64c.77,1.02,1.08,3.13.77,3.45s-2.42,0-3.45-.77c-.19-.13-.45-.19-.64-.06s-.38.32-.38.51c-.06,1.28.38,2.55,1.28,3.45s2.04,1.28,3.19,1.28c.83,0,1.6-.26,2.3-.64.13.77.06,1.47-.32,2.04-.38.64-1.08,1.02-1.79,1.15-1.6-1.02-3.7-1.91-5.93-1.91s-4.34.89-5.93,1.91c-.7-.13-1.4-.51-1.79-1.15-.38-.57-.45-1.28-.32-1.98.7.45,1.47.64,2.3.64h.06c1.15,0,2.3-.45,3.19-1.34.89-.96,1.34-2.23,1.28-3.45,0-.26-.13-.45-.38-.51-.19-.13-.45-.06-.64.06-1.02.77-3.13,1.08-3.45.77s0-2.42.77-3.45c.13-.19.19-.45.06-.64s-.32-.38-.51-.38c-1.34-.06-2.55.45-3.45,1.34-1.6,1.6-1.72,4.21-.26,6-.51,1.4-.45,2.68.26,3.7ZM18.41,11.53c-.38-.38-.64-.83-.77-1.34,1.34.57,3.19.83,3.96.06s.51-2.62-.06-3.96c.51.13,1.02.38,1.34.77,1.21,1.21,1.21,3.25,0,4.53-1.15,1.21-3.19,1.15-4.47-.06ZM23.01,19.5c-.51.45-1.4,1.28-2.55,1.98-.06,0-.06.06-.13.06-1.47.96-3.38,1.79-5.36,1.79s-3.83-.83-5.3-1.72c-.06-.06-.13-.13-.26-.13-1.15-.7-2.04-1.47-2.49-1.98,1.15-1.08,4.4-3.83,8.04-3.83,3.64,0,6.89,2.74,8.04,3.83ZM6.99,7.06c.38-.38.83-.7,1.34-.83-.57,1.34-.83,3.19-.06,3.96.77.77,2.62.51,3.96-.06-.13.51-.38,1.02-.77,1.4-.64.57-1.47.96-2.3.96s-1.66-.32-2.23-.96c-1.15-1.21-1.15-3.25.06-4.47Z"/>
</svg>