<?xml version="1.0" encoding="UTF-8"?>
<svg id="_图层_1" data-name="图层 1" xmlns="http://www.w3.org/2000/svg" viewBox="0 0 30 30">
  <defs>
    <style>
      .cls-1 {
        fill: #444;
      }
    </style>
  </defs>
  <path class="cls-1" d="M17.75,13.02c.7.45,1.53.7,2.36.7,2.49,0,4.47-1.98,4.47-4.47s-1.98-4.47-4.47-4.47c-2.23,0-4.08,1.66-4.4,3.83H6.07c-.26,0-.45.13-.57.38s-.06.51.06.7l6.89,8.1v6.13h-3.83c-.38,0-.64.26-.64.64s.26.64.64.64h8.93c.38,0,.64-.26.64-.64s-.26-.64-.64-.64h-3.83v-6.13l4.02-4.79ZM10.66,13.72h4.79l-2.42,2.87-2.36-2.87ZM20.11,6.07c1.79,0,3.19,1.4,3.19,3.19s-1.4,3.19-3.19,3.19c-.57,0-1.08-.13-1.53-.38l2.04-2.36c.19-.19.19-.45.06-.7s-.32-.38-.57-.38h-3.13c.32-1.47,1.6-2.55,3.13-2.55ZM18.7,9.9l-1.6,1.85h0l-.57.64h-6.95l-2.17-2.55h11.29v.06Z"/>
</svg>