<?xml version="1.0" encoding="UTF-8"?>
<svg id="_图层_1" data-name="图层 1" xmlns="http://www.w3.org/2000/svg" viewBox="0 0 30 30">
  <defs>
    <style>
      .cls-1 {
        fill: #444;
      }
    </style>
  </defs>
  <path class="cls-1" d="M13.72,5.43v1.91c0,.38.26.64.64.64s.64-.26.64-.64v-1.91c0-.38-.26-.64-.64-.64s-.64.26-.64.64Z"/>
  <path class="cls-1" d="M10.53,6.71v1.91c0,.38.26.64.64.64s.64-.26.64-.64v-1.91c0-.38-.26-.64-.64-.64s-.64.26-.64.64Z"/>
  <path class="cls-1" d="M16.91,6.71v1.91c0,.38.26.64.64.64s.64-.26.64-.64v-1.91c0-.38-.26-.64-.64-.64s-.64.26-.64.64Z"/>
  <path class="cls-1" d="M8.62,25.21h11.49c1.79,0,3.19-1.4,3.19-3.19,0-.38-.26-.64-.64-.64h-4.08c1.72-1.15,2.94-3,3.32-5.1h.77c1.08,0,1.91-.83,1.91-1.91v-3.19c0-.38-.26-.64-.64-.64H7.34c-.38,0-.64.26-.64.64v3.83c0,2.68,1.34,4.98,3.45,6.38h-4.08c-.38,0-.64.26-.64.64,0,1.79,1.4,3.19,3.19,3.19ZM23.29,14.36c0,.38-.26.64-.64.64h-.64v-3.19h1.28v2.55ZM7.98,15v-3.19h12.76v3.19c0,3.51-2.87,6.38-6.38,6.38s-6.38-2.87-6.38-6.38ZM21.89,22.66c-.26.77-.96,1.28-1.79,1.28h-11.49c-.83,0-1.53-.51-1.79-1.28h15.06Z"/>
</svg>