<?xml version="1.0" encoding="UTF-8"?>
<svg id="_图层_1" data-name="图层 1" xmlns="http://www.w3.org/2000/svg" viewBox="0 0 30 30">
  <defs>
    <style>
      .cls-1 {
        fill: #444;
      }
    </style>
  </defs>
  <path class="cls-1" d="M19.47,4.79c-2.42,0-4.66,1.6-5.42,3.89-.32-.06-.64-.06-.96-.06-4.59,0-8.29,3.7-8.29,8.29s3.7,8.29,8.29,8.29,8.29-3.7,8.29-8.29c0-.32,0-.64-.06-.96,2.3-.77,3.89-2.94,3.89-5.42,0-3.19-2.55-5.74-5.74-5.74ZM13.09,23.93c-3.89,0-7.02-3.13-7.02-7.02s3.13-7.02,7.02-7.02,7.02,3.13,7.02,7.02-3.13,7.02-7.02,7.02ZM21.06,14.68c-.77-2.81-3-4.98-5.74-5.74.64-1.66,2.3-2.87,4.15-2.87,2.49,0,4.47,1.98,4.47,4.47,0,1.91-1.15,3.51-2.87,4.15Z"/>
  <path class="cls-1" d="M12.26,14.17c.26-.26.26-.64,0-.89l-.64-.64c-.26-.26-.64-.26-.89,0s-.26.64,0,.89l.64.64c.13.13.32.19.45.19s.32-.06.45-.19Z"/>
  <path class="cls-1" d="M19.28,7.53c-.26-.26-.64-.26-.89,0s-.26.64,0,.89l.64.64c.13.13.32.19.45.19s.32-.06.45-.19c.26-.26.26-.64,0-.89l-.64-.64Z"/>
  <path class="cls-1" d="M16.08,17.74c-.26-.26-.64-.26-.89,0s-.26.64,0,.89l.64.64c.13.13.32.19.45.19s.32-.06.45-.19c.26-.26.26-.64,0-.89l-.64-.64Z"/>
  <path class="cls-1" d="M9.45,16.47l-.64.64c-.26.26-.26.64,0,.89.13.13.32.19.45.19s.32-.06.45-.19l.64-.64c.26-.26.26-.64,0-.89s-.64-.26-.89,0Z"/>
  <path class="cls-1" d="M12.45,19.47c-.38,0-.64.26-.64.64v.64c0,.38.26.64.64.64s.64-.26.64-.64v-.64c0-.38-.26-.64-.64-.64Z"/>
  <path class="cls-1" d="M15.64,15c.38,0,.64-.26.64-.64v-.64c0-.38-.26-.64-.64-.64s-.64.26-.64.64v.64c0,.38.26.64.64.64Z"/>
  <path class="cls-1" d="M21.57,10.09l-.64.64c-.26.26-.26.64,0,.89.13.13.32.19.45.19s.32-.06.45-.19l.64-.64c.26-.26.26-.64,0-.89s-.64-.26-.89,0Z"/>
</svg>