<?xml version="1.0" encoding="UTF-8"?>
<svg id="_图层_1" data-name="图层 1" xmlns="http://www.w3.org/2000/svg" viewBox="0 0 30 30">
  <defs>
    <style>
      .cls-1 {
        fill: #444;
      }
    </style>
  </defs>
  <path class="cls-1" d="M5.49,18.13c.06,1.4.57,2.94,1.4,4.28.19.38.57.7,1.02.77h.32c.38,0,.77-.13,1.08-.38l.06-.06,4.08-4.47h3.25l4.08,4.47.06.06c.32.26.7.38,1.08.38h.32c.45-.06.83-.38.96-.7.83-1.4,1.34-2.94,1.4-4.34.38-.26.57-.64.57-1.21-.19-2.3-1.08-4.34-2.55-5.93.13-.26.19-.51.19-.83-.06-.45-.26-.83-.64-1.08-1.91-1.47-4.4-2.23-7.15-2.23s-5.23.77-7.15,2.23c-.38.26-.57.7-.64,1.15,0,.26.06.51.13.77-1.53,1.66-2.42,3.7-2.62,6,.06.51.32.96.7,1.15ZM8.43,21.89c-.06.06-.19.06-.26.06s-.13-.06-.13-.13c-.7-1.15-1.08-2.36-1.21-3.51h4.91l-3.32,3.57ZM22.08,21.89s0,.06-.13.06c-.06,0-.19,0-.26-.06l-3.25-3.57h4.91c-.13,1.15-.57,2.36-1.28,3.57ZM23.93,17.04h-7.34l5.17-5.1c1.21,1.4,1.98,3.13,2.11,5.04l.06.06ZM8.68,10.09c1.72-1.28,3.89-1.98,6.38-1.98s4.66.7,6.38,1.98c.06.06.13.13.13.19s0,.13-.06.19l-6.44,6.32-6.44-6.32c-.06-.06-.06-.13-.06-.19s0-.13.13-.19ZM8.3,11.94l5.23,5.1h-7.34c.06-1.91.83-3.7,2.11-5.1Z"/>
</svg>