<?xml version="1.0" encoding="UTF-8"?>
<svg id="_图层_1" data-name="图层 1" xmlns="http://www.w3.org/2000/svg" viewBox="0 0 30 30">
  <defs>
    <style>
      .cls-1 {
        fill: #444;
      }
    </style>
  </defs>
  <path class="cls-1" d="M11.01,8.81c-.26-.26-.64-.26-.89,0s-.26.64,0,.89l.64.64c.13.13.32.19.45.19s.32-.06.45-.19c.26-.26.26-.64,0-.89l-.64-.64Z"/>
  <path class="cls-1" d="M19.31,9.45c-.26-.26-.64-.26-.89,0s-.26.64,0,.89l.64.64c.13.13.32.19.45.19s.32-.06.45-.19c.26-.26.26-.64,0-.89l-.64-.64Z"/>
  <path class="cls-1" d="M15.22,7.53l-.64.64c-.26.26-.26.64,0,.89.13.13.32.19.45.19s.32-.06.45-.19l.64-.64c.26-.26.26-.64,0-.89s-.64-.26-.89,0Z"/>
  <path class="cls-1" d="M20.97,14.17c.13.13.32.19.45.19s.32-.06.45-.19l.64-.64c.26-.26.26-.64,0-.89s-.64-.26-.89,0l-.64.64c-.26.26-.26.64,0,.89Z"/>
  <path class="cls-1" d="M8.2,12.64l-.64.64c-.26.26-.26.64,0,.89.13.13.32.19.45.19s.32-.06.45-.19l.64-.64c.26-.26.26-.64,0-.89s-.64-.26-.89,0Z"/>
  <path class="cls-1" d="M15.03,4.79c-5.61,0-10.21,4.59-10.21,10.21,0,1.15.19,2.23.51,3.19,0,.06.06.19.06.26,1.4,3.96,5.17,6.76,9.57,6.76,5.61,0,10.21-4.59,10.21-10.21s-4.53-10.21-10.15-10.21ZM15.03,23.93c-3.45,0-6.44-1.98-7.91-4.79.38.06.77.13,1.15.13,1.28,0,2.49-.45,3.45-1.28.83.89,1.98,1.53,3.32,1.53s2.49-.57,3.32-1.47c1.02,1.02,2.3,1.47,3.51,1.47.38,0,.7-.06,1.02-.13-1.53,2.68-4.47,4.53-7.85,4.53ZM17.78,16.66s0,.06-.06.06c-.57.89-1.53,1.47-2.68,1.47s-2.11-.57-2.68-1.47c0,0,0-.06-.06-.06-.32-.51-.45-1.02-.45-1.66,0-1.79,1.4-3.19,3.19-3.19s3.19,1.4,3.19,3.19c0,.57-.19,1.15-.45,1.66ZM23.52,17.74c-1.28.7-3.19.64-4.47-.83.26-.57.45-1.21.45-1.91,0-2.49-1.98-4.47-4.47-4.47s-4.47,1.98-4.47,4.47c0,.64.13,1.28.45,1.85-1.15,1.08-2.74,1.4-4.47.77-.26-.83-.38-1.72-.38-2.62,0-4.91,4.02-8.93,8.93-8.93s8.93,4.02,8.93,8.93c-.06.96-.19,1.85-.51,2.74Z"/>
</svg>