<?xml version="1.0" encoding="UTF-8"?>
<svg id="_图层_1" data-name="图层 1" xmlns="http://www.w3.org/2000/svg" viewBox="0 0 30 30">
  <defs>
    <style>
      .cls-1 {
        fill: #444;
      }
    </style>
  </defs>
  <path class="cls-1" d="M7.6,10.02c-.13.13-.26.32-.26.51v12.12c0,1.4,1.15,2.55,2.55,2.55h10.21c1.4,0,2.55-1.15,2.55-2.55v-12.12c0-.19-.06-.38-.26-.51-.64-.51-1.15-1.02-1.47-1.4h.45c.38,0,.64-.26.64-.64v-2.55c0-.38-.26-.64-.64-.64h-12.76c-.38,0-.64.26-.64.64v2.55c0,.38.26.64.64.64h.38c-.32.38-.77.89-1.4,1.4ZM9.26,6.07h11.49v1.28h-11.49v-1.28ZM8.62,10.85c1.08-.89,1.66-1.72,1.98-2.23h8.81c.32.51.89,1.34,1.98,2.23v11.8c0,.7-.57,1.28-1.28,1.28h-10.21c-.7,0-1.28-.57-1.28-1.28v-11.8Z"/>
  <path class="cls-1" d="M13.72,16.91h1.28l-1.15,1.53c-.19.26-.13.7.13.89.13.06.26.13.38.13.19,0,.38-.06.51-.26l1.91-2.55c.13-.19.19-.45.06-.64s-.32-.38-.57-.38h-1.28l1.15-1.53c.19-.26.13-.7-.13-.89-.26-.19-.7-.13-.89.13l-1.91,2.55c-.13.19-.19.45-.06.64s.32.38.57.38Z"/>
</svg>