<?xml version="1.0" encoding="UTF-8"?>
<svg id="_图层_1" data-name="图层 1" xmlns="http://www.w3.org/2000/svg" viewBox="0 0 30 30">
  <defs>
    <style>
      .cls-1 {
        fill: #444;
      }
    </style>
  </defs>
  <path class="cls-1" d="M23.29,12.45c0-1.79-1.4-3.19-3.19-3.19-1.02,0-1.98.51-2.55,1.28-.45-.64-1.08-1.08-1.85-1.21.19-1.34,1.08-2.62,3.13-2.62.38,0,.64-.26.64-.64s-.26-.64-.64-.64c-2.81,0-4.21,1.85-4.4,3.89-.77.13-1.47.64-1.98,1.21-.57-.77-1.53-1.28-2.55-1.28-1.79,0-3.19,1.4-3.19,3.19,0,1.66,1.28,3,2.87,3.13-.19.38-.32.83-.32,1.34,0,1.66,1.28,3,2.87,3.13-.19.38-.32.83-.32,1.34,0,1.79,1.4,3.19,3.19,3.19s3.19-1.4,3.19-3.19c0-.45-.13-.89-.32-1.34,1.6-.19,2.87-1.53,2.87-3.13,0-.45-.13-.89-.32-1.34,1.6-.13,2.87-1.47,2.87-3.13ZM15,10.53c1.08,0,1.91.83,1.91,1.91s-.83,1.91-1.91,1.91-1.91-.83-1.91-1.91.83-1.91,1.91-1.91ZM7.98,12.45c0-1.08.83-1.91,1.91-1.91s1.91.83,1.91,1.91-.83,1.91-1.91,1.91-1.91-.83-1.91-1.91ZM10.53,16.91c0-1.08.83-1.91,1.91-1.91s1.91.83,1.91,1.91-.83,1.91-1.91,1.91-1.91-.83-1.91-1.91ZM15,23.29c-1.08,0-1.91-.83-1.91-1.91s.83-1.91,1.91-1.91,1.91.83,1.91,1.91-.83,1.91-1.91,1.91ZM17.55,18.83c-1.08,0-1.91-.83-1.91-1.91s.83-1.91,1.91-1.91,1.91.83,1.91,1.91-.83,1.91-1.91,1.91ZM20.1,14.36c-1.08,0-1.91-.83-1.91-1.91s.83-1.91,1.91-1.91,1.91.83,1.91,1.91-.83,1.91-1.91,1.91Z"/>
</svg>