<?xml version="1.0" encoding="UTF-8"?>
<svg id="_图层_1" data-name="图层 1" xmlns="http://www.w3.org/2000/svg" viewBox="0 0 30 30">
  <defs>
    <style>
      .cls-1 {
        fill: #444;
      }
    </style>
  </defs>
  <path class="cls-1" d="M20.68,9.51c-.45-2.68-2.87-4.72-5.68-4.72s-5.17,1.91-5.68,4.66c-1.15.45-1.98,1.66-1.98,3,0,1.79,1.4,3.19,3.19,3.19l3.06,8.61c.26.57.83.96,1.47.96h.06c.64,0,1.15-.45,1.34-1.02l3-8.55c1.79,0,3.19-1.4,3.19-3.19,0-1.28-.77-2.42-1.98-2.94ZM15.26,23.81c0,.06-.06.13-.19.13-.06,0-.19,0-.26-.13l-2.94-8.17h6.25l-2.87,8.17ZM19.47,14.36h-8.93c-1.08,0-1.91-.83-1.91-1.91,0-.89.57-1.66,1.4-1.85h0c.19-.06.32-.06.51-.06.7,0,1.34.38,1.66.96.13.19.32.32.57.32.13,0,.19,0,.32-.06.32-.19.38-.57.26-.89-.57-.96-1.53-1.53-2.62-1.6.57-1.91,2.3-3.19,4.34-3.19s3.76,1.34,4.34,3.19c-1.08.06-2.11.64-2.62,1.6-.19.32-.06.7.26.89.13.06.19.06.32.06.19,0,.45-.13.57-.32.32-.57.96-.96,1.66-.96.19,0,.32,0,.45.06.89.26,1.47,1.02,1.47,1.85-.13,1.08-.96,1.91-2.04,1.91Z"/>
</svg>