<?xml version="1.0" encoding="UTF-8"?>
<svg id="_图层_1" data-name="图层 1" xmlns="http://www.w3.org/2000/svg" viewBox="0 0 30 30">
  <defs>
    <style>
      .cls-1 {
        fill: #444;
      }
    </style>
  </defs>
  <path class="cls-1" d="M16.28,4.79h-3.19c-.38,0-.64.26-.64.64v1.91h-5.74c-.26,0-.45.13-.57.38-.13.26-.06.51.06.7l3.06,3.7.57,3.51-2.49,8.74c-.06.19,0,.38.13.57s.32.26.51.26h13.4c.19,0,.38-.13.51-.26.13-.19.13-.38.06-.57l-3.06-8.74.64-1.91h1.85c1.4,0,2.55-1.15,2.55-2.55v-3.19c0-.38-.26-.64-.64-.64h-6.38v-1.91c0-.38-.26-.64-.64-.64ZM13.73,6.07h1.91v1.28h-1.91v-1.28ZM20.49,23.93h-11.68l2.17-7.66h6.7l2.81,7.66ZM22.66,11.17c0,.7-.57,1.28-1.28,1.28h-1.47l1.28-3.83h1.47v2.55ZM18.45,12.77c-.06.06-.06.13-.06.19l-.64,2.04h-6.7l-.51-3.32c0-.13-.06-.19-.13-.32l-2.36-2.74h11.8l-1.4,4.15Z"/>
</svg>