<?xml version="1.0" encoding="UTF-8"?>
<svg id="_图层_1" data-name="图层 1" xmlns="http://www.w3.org/2000/svg" viewBox="0 0 30 30">
  <defs>
    <style>
      .cls-1 {
        fill: #444;
      }
    </style>
  </defs>
  <path class="cls-1" d="M5.43,22.66h19.14c.38,0,.64-.26.64-.64v-8.93c0-.06,0-.13-.06-.19v-.06c0-.06-.06-.06-.06-.13,0,0,0-.06-.06-.06-.06-.06-.13-.06-.19-.13h0l-12.12-5.1c-.06-.06-.19-.06-.26-.06-5.23,0-7.66,3-7.66,5.74v8.93c0,.38.26.64.64.64ZM11.17,13.72v3.19h-5.1v-3.19h5.1ZM6.07,21.38v-3.19h5.1c0,1.08.83,1.91,1.91,1.91s1.91-.83,1.91-1.91h8.93v3.19H6.07ZM23.93,16.91h-8.93v-3.19h8.93v3.19ZM12.32,8.62l9.06,3.83h-7.02c-.38,0-.64.26-.64.64v5.1c0,.38-.26.64-.64.64s-.64-.26-.64-.64v-5.1c0-.38-.26-.64-.64-.64h-5.68c.32-1.66,1.85-3.76,6.19-3.83Z"/>
</svg>