<?xml version="1.0" encoding="UTF-8"?>
<svg id="_图层_1" data-name="图层 1" xmlns="http://www.w3.org/2000/svg" viewBox="0 0 30 30">
  <defs>
    <style>
      .cls-1 {
        fill: #444;
      }
    </style>
  </defs>
  <path class="cls-1" d="M18.13,14.32c1.4,0,2.55-1.15,2.55-2.55s-1.15-2.55-2.55-2.55-2.55,1.15-2.55,2.55,1.15,2.55,2.55,2.55ZM18.13,10.49c.7,0,1.28.57,1.28,1.28s-.57,1.28-1.28,1.28-1.28-.57-1.28-1.28.57-1.28,1.28-1.28Z"/>
  <path class="cls-1" d="M6,21.97c.06,0,.13,0,.26-.06l2.87-1.08-1.08,2.87c-.13.32.06.7.38.83.06,0,.13.06.26.06.26,0,.51-.13.57-.38l1.53-3.96,13.4-5.3c.32-.13.51-.51.38-.83-.13-.32-.51-.51-.83-.38l-.96.38c.38-.7.57-1.47.57-2.36,0-2.81-2.3-5.1-5.1-5.1-.83,0-1.66.19-2.36.57l.38-.96c.13-.32-.06-.7-.38-.83-.32-.13-.7.06-.83.38l-5.3,13.4-3.96,1.53c-.32.13-.51.51-.38.83.06.26.32.38.57.38ZM21.95,11.77c0,2.11-1.72,3.83-3.83,3.83s-3.83-1.72-3.83-3.83,1.72-3.83,3.83-3.83,3.83,1.72,3.83,3.83ZM13.34,13.49c.51,1.4,1.66,2.55,3.06,3.06l-5.04,1.98,1.98-5.04Z"/>
</svg>