<?xml version="1.0" encoding="UTF-8"?>
<svg id="_图层_1" data-name="图层 1" xmlns="http://www.w3.org/2000/svg" viewBox="0 0 30 30">
  <defs>
    <style>
      .cls-1 {
        fill: #444;
      }
    </style>
  </defs>
  <path class="cls-1" d="M7.66,13.09v9.57c0,1.4,1.15,2.55,2.55,2.55h7.66c1.4,0,2.55-1.15,2.55-2.55v-2.55h1.28c1.08,0,1.91-.83,1.91-1.91v-3.83c0-.38-.26-.64-.64-.64h-2.55v-.64c.77-.57,1.28-1.47,1.28-2.55,0-1.79-1.4-3.19-3.19-3.19-.13,0-.26,0-.45.06-.7-1.53-2.3-2.62-4.02-2.62s-3.32,1.02-4.02,2.62c-.13,0-.32-.06-.45-.06-1.79,0-3.19,1.4-3.19,3.19,0,1.02.51,1.98,1.28,2.55ZM22.34,15v3.19c0,.38-.26.64-.64.64h-1.28v-3.83h1.91ZM19.15,22.66c0,.7-.57,1.28-1.28,1.28h-7.66c-.7,0-1.28-.57-1.28-1.28v-9c.19.06.45.06.64.06h.64v3.19c0,1.08.83,1.91,1.91,1.91s1.91-.83,1.91-1.91v-3.19h4.47c.19,0,.45,0,.64-.06v9ZM9.58,8.62c.13,0,.38.06.7.13s.7-.13.77-.45c.38-1.28,1.6-2.23,3-2.23s2.62.89,3,2.23c.13.32.45.51.77.45.26-.06.51-.13.7-.13,1.08,0,1.91.83,1.91,1.91s-.83,1.91-1.91,1.91h-5.1c-.38,0-.64.26-.64.64v3.83c0,.38-.26.64-.64.64s-.64-.26-.64-.64v-3.83c0-.38-.26-.64-.64-.64h-1.28c-1.08,0-1.91-.83-1.91-1.91s.83-1.91,1.91-1.91Z"/>
</svg>