<?xml version="1.0" encoding="UTF-8"?>
<svg id="_图层_1" data-name="图层 1" xmlns="http://www.w3.org/2000/svg" viewBox="0 0 30 30">
  <defs>
    <style>
      .cls-1 {
        fill: #444;
      }
    </style>
  </defs>
  <path class="cls-1" d="M10.47,14.87c.13,0,.32.06.51.06.83,0,1.79-.32,2.36-.83.51-.38.57-.83.57-1.08,0-1.47-2.42-2.74-3.57-2.74-1.34,0-2.04,1.08-2.04,2.11,0,.96.89,2.23,2.17,2.49ZM10.34,11.55c.77,0,2.23,1.02,2.3,1.47-.19.26-1.21.77-1.91.64-.64-.13-1.15-.83-1.15-1.21,0-.13,0-.89.77-.89Z"/>
  <path class="cls-1" d="M19.47,11.81c-1.66,0-2.49-.77-3.45-1.79-1.28-1.28-2.68-2.68-6.13-2.68-2.74,0-4.85,1.85-5.1,4.34v3.32c0,2.94,2.74,7.66,10.21,7.66,6.7,0,10.21-.19,10.21-3.96v-3.06c0-2.49-2.94-3.83-5.74-3.83ZM9.9,8.62c2.87,0,4.02,1.15,5.23,2.3,1.08,1.08,2.17,2.17,4.34,2.17s4.47.96,4.47,2.55c0,2.17-1.28,2.55-8.93,2.55-6.57,0-8.93-3.64-8.93-6.06,0-1.98,1.66-3.51,3.83-3.51ZM15,21.38c-5.74,0-8.29-3.06-8.81-5.49,1.47,1.91,4.28,3.57,8.81,3.57s7.34,0,8.93-1.08v.32c0,2.23-1.53,2.68-8.93,2.68Z"/>
</svg>