<?xml version="1.0" encoding="UTF-8"?>
<svg id="_图层_1" data-name="图层 1" xmlns="http://www.w3.org/2000/svg" viewBox="0 0 30 30">
  <defs>
    <style>
      .cls-1 {
        fill: #444;
      }
    </style>
  </defs>
  <path class="cls-1" d="M11.17,5.11h-1.91c-1.4,0-2.55,1.15-2.55,2.55v6.38c0,1.4,1.15,2.55,2.55,2.55h1.28v5.74c0,1.4,1.15,2.55,2.55,2.55h7.66c1.4,0,2.55-1.15,2.55-2.55v-6.38c0-.38-.26-.64-.64-.64h-1.91v-1.28c0-1.08-.83-1.91-1.91-1.91h-5.1c-.38,0-.64.26-.64.64v2.55h-1.28V5.75c0-.38-.26-.64-.64-.64ZM7.98,14.04v-6.38c0-.7.57-1.28,1.28-1.28h1.28v8.93h-1.28c-.7,0-1.28-.57-1.28-1.28ZM22.02,22.34c0,.7-.57,1.28-1.28,1.28h-7.66c-.7,0-1.28-.57-1.28-1.28v-5.74h10.21v5.74ZM14.36,13.4h4.47c.38,0,.64.26.64.64v1.28h-5.1v-1.91Z"/>
  <path class="cls-1" d="M19.47,9.13c0-1.08-1.6-3.19-2.04-3.76-.13-.13-.32-.26-.51-.26s-.38.06-.51.26c-.51.64-2.04,2.74-2.04,3.76,0,1.28,1.15,2.36,2.55,2.36s2.55-1.02,2.55-2.36ZM15.64,9.13c0-.32.57-1.28,1.28-2.3.7.96,1.28,1.98,1.28,2.3,0,.64-.57,1.08-1.28,1.08-.77,0-1.28-.57-1.28-1.08Z"/>
</svg>