<?xml version="1.0" encoding="UTF-8"?>
<svg id="_图层_1" data-name="图层 1" xmlns="http://www.w3.org/2000/svg" viewBox="0 0 30 30">
  <defs>
    <style>
      .cls-1 {
        fill: #444;
      }
    </style>
  </defs>
  <path class="cls-1" d="M23.27,17.56l-.19.06c-.32.06-.83.19-1.47.26,1.53-.83,2.55-1.79,2.94-2.74.45-1.34,0-2.62-.7-3.19-.51-.45-1.08-.51-1.66-.19-.89.45-3.51,1.91-8.87.96-1.72-.26-3-.7-4.08-1.4-.38-1.28-.51-2.81-.64-4.79,0-.19-.06-.32-.19-.45-.13-.13-.32-.19-.45-.13l-2.23.19c-.32,0-.57.32-.57.64l.13,3.06c-.19.64-.96,4.02-.19,7.21,1.02,4.4,6.25,6.83,10.78,7.02h.77c3.83,0,6.95-.96,8.04-2.55.83-1.15.64-2.49.19-3.19-.45-.64-1.02-.89-1.6-.77ZM13.06,13.86c5.81,1.02,8.74-.51,9.76-1.08,0,0,.13.06.26.19.26.38.45,1.02.19,1.66-.32.77-1.66,1.98-4.53,3.06-1.21-.19-2.74-.64-4.47-1.4-2.23-.96-3.51-2.04-4.34-3.32.96.45,1.98.7,3.13.89ZM23.59,20.76c-.7,1.08-3.57,2.11-7.66,1.98-4.08-.13-8.68-2.23-9.63-6-.77-3.19.19-6.64.19-6.7v-.19l-.13-2.55.96-.06c.13,1.66.32,3.13.64,4.4,0,.13,0,.26.13.38.77,2.3,2.3,4.08,5.68,5.55,5.17,2.3,8.29,1.6,9.51,1.34l.19-.06c.06,0,.19.13.19.13.32.38.38,1.15-.06,1.79Z"/>
</svg>