<?xml version="1.0" encoding="UTF-8"?>
<svg id="_图层_1" data-name="图层 1" xmlns="http://www.w3.org/2000/svg" viewBox="0 0 30 30">
  <defs>
    <style>
      .cls-1 {
        fill: #444;
      }
    </style>
  </defs>
  <path class="cls-1" d="M5.43,10.92c0,7.53,6.13,13.65,13.65,13.65,1.28,0,2.36-.83,2.81-2.04l1.72,1.08c.13.06.26.13.32.13.13,0,.19,0,.32-.06.19-.13.32-.32.32-.57v-3.25c0-.26-.13-.45-.32-.57s-.45-.13-.64.06l-1.66,1.15c-.38-1.21-1.53-2.11-2.87-2.11-4.15,0-7.47-3.32-7.47-7.47,0-1.34-.83-2.42-1.98-2.87l1.08-1.66c.13-.19.13-.45.06-.64-.13-.19-.32-.32-.57-.32h-3.25c-.26,0-.45.13-.57.32s-.13.45,0,.64l1.08,1.66c-1.21.45-2.04,1.53-2.04,2.87ZM23.29,21.06v.83l-.64-.45.64-.38ZM8.94,6.71l-.45.64-.45-.64h.89ZM8.49,9.13c.96,0,1.79.83,1.79,1.79,0,4.85,3.89,8.74,8.74,8.74.96,0,1.79.83,1.79,1.79,0,1.02-.77,1.85-1.72,1.85-6.83,0-12.38-5.55-12.38-12.38,0-.96.83-1.79,1.79-1.79Z"/>
</svg>