<?xml version="1.0" encoding="UTF-8"?>
<svg id="_图层_1" data-name="图层 1" xmlns="http://www.w3.org/2000/svg" viewBox="0 0 30 30">
  <defs>
    <style>
      .cls-1 {
        fill: #444;
      }
    </style>
  </defs>
  <path class="cls-1" d="M15.04,17.56c0,1.08.83,1.91,1.91,1.91s1.91-.83,1.91-1.91-.83-1.91-1.91-1.91-1.91.83-1.91,1.91ZM16.96,16.92c.38,0,.64.26.64.64s-.26.64-.64.64-.64-.26-.64-.64.26-.64.64-.64Z"/>
  <circle class="cls-1" cx="15.04" cy="12.46" r="1.28"/>
  <path class="cls-1" d="M6.62,22.73c2.68,1.21,5.49,1.85,8.42,1.85s5.81-.64,8.42-1.85c.13-.06.26-.19.32-.38s.06-.32-.06-.51l-1.4-2.68v-.06c0-.06-.06-.06-.06-.13l-6.7-13.21c-.19-.45-.89-.45-1.15,0l-6.7,13.21c0,.06-.06.06-.06.13v.06l-1.4,2.68c-.06.13-.06.32-.06.51.13.19.26.32.45.38ZM15.04,23.3c-2.55,0-4.98-.51-7.27-1.47l.83-1.66c2.04.83,4.21,1.21,6.44,1.21s4.4-.45,6.44-1.21l.83,1.66c-2.3.96-4.72,1.47-7.27,1.47ZM15.04,7.48l5.87,11.55c-3.7,1.4-8.04,1.4-11.74,0l1.15-2.23c.32.45.89.77,1.53.77,1.08,0,1.91-.83,1.91-1.91,0-1.02-.83-1.91-1.91-1.91l3.19-6.25ZM11.85,15.01c.38,0,.64.26.64.64s-.26.64-.64.64-.64-.26-.64-.64.26-.64.64-.64Z"/>
</svg>