<?xml version="1.0" encoding="UTF-8"?>
<svg id="_图层_1" data-name="图层 1" xmlns="http://www.w3.org/2000/svg" viewBox="0 0 30 30">
  <defs>
    <style>
      .cls-1 {
        fill: #444;
      }
    </style>
  </defs>
  <path class="cls-1" d="M12.79,22.05c4.53,0,7.4-3.38,8.42-4.79l2.62,2.11c.13.06.26.13.38.13.06,0,.19,0,.26-.06.19-.13.38-.32.38-.57v-5.1c0-.26-.13-.45-.38-.57-.19-.13-.51-.06-.7.06l-2.62,2.11c-.83-1.15-2.94-3.64-6.19-4.53-.13-.7-.06-1.4.26-1.91.13-.19.06-.45,0-.64-.13-.19-.32-.32-.57-.32-1.79,0-3.38,1.47-4.02,2.94-3.45,1.21-5.36,4.91-5.42,5.1s-.06.38,0,.57c.13.26,2.81,5.49,7.59,5.49ZM23.64,15.1v2.42l-1.53-1.21,1.53-1.21ZM13.75,9.48c-.13.64-.06,1.34.13,2.04.06.26.26.38.51.45,3.19.7,5.3,3.38,5.93,4.28-.77,1.08-3.45,4.47-7.53,4.47h-.45c.77-1.34,1.15-2.81,1.15-4.47s-.51-3.32-1.66-4.91c.38-.7,1.15-1.47,1.91-1.85ZM10.88,12.22c.89,1.34,1.34,2.68,1.34,4.08,0,1.53-.38,2.94-1.15,4.15-2.42-.83-4.08-3.32-4.53-4.15.45-.83,2.04-3.19,4.34-4.08Z"/>
</svg>