<?xml version="1.0" encoding="UTF-8"?>
<svg id="_图层_1" data-name="图层 1" xmlns="http://www.w3.org/2000/svg" viewBox="0 0 30 30">
  <defs>
    <style>
      .cls-1 {
        fill: #444;
      }
    </style>
  </defs>
  <path class="cls-1" d="M6.71,20.55c.19,1.91,1.79,3.38,3.83,3.38h8.93c1.98,0,3.57-1.47,3.83-3.38,1.08-.38,1.91-1.47,1.91-2.68,0-.77-.32-1.47-.83-1.98.51-.32.83-.89.83-1.53,0-1.08-.83-1.91-1.91-1.91h-.06c-.32-3.57-3.32-6.38-6.95-6.38h-2.55c-3.64,0-6.64,2.81-6.95,6.38h-.06c-1.08,0-1.91.83-1.91,1.91,0,.64.32,1.21.83,1.53-.51.51-.83,1.21-.83,1.98,0,1.21.83,2.3,1.91,2.68ZM19.47,22.66h-8.93c-1.21,0-2.17-.83-2.49-1.91h13.85c-.26,1.08-1.21,1.91-2.42,1.91ZM22.34,19.47H7.66c-.89,0-1.6-.7-1.6-1.6s.7-1.6,1.6-1.6h7.78l2.36,1.79c.13.06.26.13.38.13s.26-.06.38-.13l2.36-1.79h1.4c.89,0,1.6.7,1.6,1.6s-.7,1.6-1.6,1.6ZM13.72,7.34h2.55c2.94,0,5.36,2.23,5.68,5.1H7.98c.38-2.87,2.81-5.1,5.74-5.1ZM6.71,13.72h16.59c.38,0,.64.26.64.64s-.26.64-.64.64h-2.55c-.13,0-.26.06-.38.13l-2.17,1.6-2.17-1.6c-.13-.06-.26-.13-.38-.13H6.71c-.38,0-.64-.26-.64-.64s.26-.64.64-.64Z"/>
  <path class="cls-1" d="M11.62,10.09c-.26-.26-.64-.26-.89,0s-.26.64,0,.89l.64.64c.13.13.32.19.45.19s.32-.06.45-.19c.26-.26.26-.64,0-.89l-.64-.64Z"/>
  <path class="cls-1" d="M14.55,8.81l-.64.64c-.26.26-.26.64,0,.89.13.13.32.19.45.19s.32-.06.45-.19l.64-.64c.26-.26.26-.64,0-.89s-.64-.26-.89,0Z"/>
  <path class="cls-1" d="M18.83,9.26c-.38,0-.64.26-.64.64v.64c0,.38.26.64.64.64s.64-.26.64-.64v-.64c0-.38-.26-.64-.64-.64Z"/>
</svg>