<?xml version="1.0" encoding="UTF-8"?>
<svg id="_图层_1" data-name="图层 1" xmlns="http://www.w3.org/2000/svg" viewBox="0 0 30 30">
  <defs>
    <style>
      .cls-1 {
        fill: #444;
      }
    </style>
  </defs>
  <path class="cls-1" d="M6.19,12.06c-.13.13-.19.32-.13.51l2.55,12.12c.06.32.32.51.64.51h11.49c.32,0,.57-.19.64-.51l2.55-12.12c.06-.19,0-.38-.13-.51s-.32-.26-.51-.26h-1.28v-4.47c0-.38-.26-.64-.64-.64h-1.91v-.64c0-.38-.26-.64-.64-.64h-2.55c-.38,0-.64.26-.64.64v1.91h-1.28v-2.55c0-.38-.26-.64-.64-.64h-2.55c-.38,0-.64.26-.64.64v1.28h-1.91c-.38,0-.64.26-.64.64v4.47h-1.28c-.19,0-.38.06-.51.26ZM20.74,7.98v3.83h-1.28v-3.83h1.28ZM16.91,6.71h1.28v5.1h-1.28v-5.1ZM15.64,9.26v2.55h-1.28v-2.55h1.28ZM11.81,6.07h1.28v5.74h-1.28v-5.74ZM9.26,7.98h1.28v3.83h-1.28v-3.83ZM22.53,13.09l-2.3,10.85h-10.46l-2.3-10.85h15.06Z"/>
  <path class="cls-1" d="M15,22.02c1.79,0,3.19-1.4,3.19-3.19s-1.4-3.19-3.19-3.19-3.19,1.4-3.19,3.19,1.4,3.19,3.19,3.19ZM15,16.91c1.08,0,1.91.83,1.91,1.91s-.83,1.91-1.91,1.91-1.91-.83-1.91-1.91.83-1.91,1.91-1.91Z"/>
</svg>