<?xml version="1.0" encoding="UTF-8"?>
<svg id="_图层_1" data-name="图层 1" xmlns="http://www.w3.org/2000/svg" viewBox="0 0 30 30">
  <defs>
    <style>
      .cls-1 {
        fill: #444;
      }
    </style>
  </defs>
  <path class="cls-1" d="M8.08,11.95c.26,1.79,1.6,3.83,3.51,4.47,0,.38.06.77.19,1.15l1.21,3.7c-1.08.51-1.79,1.6-1.79,2.87,0,.38.26.64.64.64h6.38c.38,0,.64-.26.64-.64,0-1.28-.7-2.3-1.79-2.87l1.21-3.7c.13-.38.19-.77.19-1.21,1.91-.64,3.19-2.62,3.45-4.4,1.85-.26,3.25-1.85,3.25-3.76,0-1.02-.45-2.04-1.15-2.74-.13-.13-.38-.19-.57-.19-.19.06-.38.19-.45.38-.38.96-1.28,2.23-1.66,2.49-.38-.32-1.28-1.6-1.66-2.49-.06-.19-.26-.32-.45-.38-.19-.06-.45,0-.57.19-.7.7-1.15,1.72-1.15,2.74,0,1.91,1.34,3.45,3.13,3.76-.19,1.21-1.08,2.55-2.3,3.13-.06-.32-.19-.64-.32-.89l-1.53-3.13c-.26-.57-.83-.96-1.47-.96-.7,0-1.28.38-1.47.96l-1.53,3.06c-.13.32-.26.64-.32.96-1.28-.57-2.17-1.91-2.36-3.13,1.79-.32,3.13-1.85,3.13-3.76,0-1.02-.45-2.04-1.15-2.74-.13-.13-.38-.19-.57-.19-.19.06-.38.19-.45.38-.38.96-1.28,2.23-1.66,2.49-.38-.26-1.21-1.53-1.66-2.49-.06-.19-.26-.32-.45-.38-.19-.06-.45,0-.57.19-.7.7-1.15,1.72-1.15,2.74,0,1.91,1.4,3.51,3.25,3.76ZM18.86,8.18c0-.38.06-.7.26-1.08.57.96,1.47,2.36,2.3,2.36s1.79-1.34,2.3-2.36c.13.32.26.7.26,1.08,0,1.4-1.15,2.55-2.55,2.55s-2.55-1.15-2.55-2.55ZM12.61,23.5c.26-.77.96-1.28,1.79-1.28h1.28c.83,0,1.53.51,1.79,1.28h-4.85ZM13.18,14.69l1.53-3.13s0-.06.06-.06c0-.06.19-.13.32-.13.06,0,.26,0,.38.19l1.53,3.13c.38.7.45,1.66.13,2.42l-1.28,3.76h-1.66l-1.21-3.76c-.26-.77-.19-1.66.19-2.42ZM6.35,7.16c.51.96,1.4,2.3,2.3,2.3.83,0,1.79-1.34,2.3-2.36.13.32.26.7.26,1.08,0,1.4-1.15,2.55-2.55,2.55s-2.55-1.15-2.55-2.55c0-.38.06-.7.26-1.02Z"/>
</svg>