<?xml version="1.0" encoding="UTF-8"?>
<svg id="_图层_1" data-name="图层 1" xmlns="http://www.w3.org/2000/svg" viewBox="0 0 30 30">
  <defs>
    <style>
      .cls-1 {
        fill: #444;
      }
    </style>
  </defs>
  <path class="cls-1" d="M24.35,11.45c.51-.51.83-1.21.83-1.98s-.32-1.47-.83-1.98c-.32-.32-.7-.57-1.15-.7-.13-.45-.38-.89-.7-1.15-1.08-1.08-2.87-1.08-3.96,0-.83.83-1.02,2.04-.57,3.06l-3.32,3.32-.19-.19c-.26-.26-.64-.26-.89,0l-1.72,1.72c-1.91-.45-3.83.13-5.3,1.6-2.3,2.3-2.3,6,0,8.29,1.15,1.15,2.68,1.72,4.15,1.72s3-.57,4.15-1.72c1.4-1.4,1.98-3.45,1.6-5.3l1.72-1.72c.26-.26.26-.64,0-.89l-.13-.13,3.32-3.32c.89.38,2.11.19,3-.64ZM15.22,17.51c-.19.19-.26.38-.19.64.45,1.53,0,3.25-1.15,4.4-1.79,1.79-4.72,1.79-6.51,0-1.79-1.79-1.79-4.72,0-6.51,1.21-1.21,2.87-1.66,4.4-1.15.26.06.45,0,.64-.19l1.53-1.53,2.81,2.81-1.53,1.53ZM20.71,10.81l-3.64,3.64-1.53-1.53,3.64-3.64c.19-.19.26-.57.06-.83-.45-.64-.32-1.4.19-1.91.57-.57,1.6-.57,2.23.06.26.26.38.57.45.83.06.26.26.51.51.51.26.06.64.19.83.45.26.26.45.64.45,1.08s-.13.83-.45,1.08c-.57.51-1.4.57-1.98.19-.19-.19-.57-.13-.77.06Z"/>
</svg>